<?xml version="1.0" encoding="iso-8859-1"?>
<!-- Generator: Adobe Illustrator 21.0.0, SVG Export Plug-In . SVG Version: 6.00 Build 0)  -->
<svg xmlns="http://www.w3.org/2000/svg" xmlns:xlink="http://www.w3.org/1999/xlink" version="1.1" id="Capa_1" x="0px" y="0px" viewBox="0 0 505.557 505.557" style="enable-background:new 0 0 505.557 505.557;" xml:space="preserve" width="512" height="512">
<g id="XMLID_1000_">
	<path id="XMLID_1078_" d="M453.769,68.778H51.788C23.232,68.778,0,92.011,0,120.566V384.99c0,28.556,23.232,51.788,51.788,51.788   h401.98c28.556,0,51.788-23.232,51.788-51.788V120.566C505.557,92.011,482.324,68.778,453.769,68.778z M30,384.99v-46.299h52.061   v68.087H51.788C39.774,406.778,30,397.004,30,384.99z M475.557,384.99c0,12.014-9.774,21.788-21.788,21.788H112.061v-83.087   c0-8.284-6.716-15-15-15H30V120.566c0-12.014,9.774-21.788,21.788-21.788h401.98c12.014,0,21.788,9.774,21.788,21.788V384.99z"/>
	<path id="XMLID_1080_" d="M292.869,214.402c-5.882,5.834-5.92,15.331-0.086,21.213c9.069,9.144,8.93,24.04-0.312,33.207   c-5.882,5.834-5.92,15.331-0.086,21.213c2.933,2.957,6.79,4.437,10.649,4.437c3.818,0,7.639-1.449,10.563-4.351   c20.985-20.816,21.202-54.744,0.483-75.633C308.248,208.608,298.75,208.568,292.869,214.402z"/>
	<path id="XMLID_1081_" d="M356.155,189.911c-5.835-5.883-15.331-5.92-21.213-0.086s-5.92,15.331-0.086,21.213   c22.406,22.589,22.107,59.345-0.667,81.936c-5.882,5.834-5.92,15.331-0.086,21.213c2.933,2.957,6.79,4.437,10.649,4.437   c3.818,0,7.639-1.449,10.563-4.351C389.835,280.032,390.211,224.244,356.155,189.911z"/>
	<path id="XMLID_1082_" d="M370.59,152.746c-5.882,5.834-5.92,15.331-0.086,21.213c42.586,42.933,42.045,112.765-1.206,155.666   c-5.882,5.834-5.92,15.331-0.086,21.213c2.933,2.957,6.79,4.437,10.649,4.437c3.818,0,7.639-1.449,10.563-4.351   c54.995-54.551,55.613-143.414,1.378-198.092C385.968,146.951,376.472,146.912,370.59,152.746z"/>
	<path id="XMLID_1083_" d="M216.976,147.986H78.072c-8.284,0-15,6.716-15,15s6.716,15,15,15h138.903c8.284,0,15-6.716,15-15   S225.26,147.986,216.976,147.986z"/>
	<path id="XMLID_1084_" d="M147.523,206.398H83.778c-8.284,0-15,6.716-15,15s6.716,15,15,15h63.745c8.284,0,15-6.716,15-15   S155.808,206.398,147.523,206.398z"/>
</g>















</svg>
