<svg height="512pt" viewBox="0 -5 512 512" width="512pt" xmlns="http://www.w3.org/2000/svg" xmlns:xlink="http://www.w3.org/1999/xlink"><linearGradient id="a" gradientUnits="userSpaceOnUse" x1="255.9997955613" x2="255.9997955613" y1="-.0015004385" y2="502.9947215611"><stop offset="0" stop-color="#2af598"/><stop offset="1" stop-color="#009efd"/></linearGradient><path d="m436.109375 502.996094-33.5-21.863282c44.539063-68.257812 68.53125-147.65625 69.386719-229.636718-.855469-81.980469-24.847656-161.378906-69.386719-229.636719l33.5-21.859375c48.753906 74.710938 74.996094 161.609375 75.886719 251.300781l.003906.199219-.003906.199219c-.890625 89.6875-27.132813 176.585937-75.886719 251.296875zm-35.109375-251.238282.003906-.261718-.003906-.265625c-.917969-69.640625-21.808594-136.902344-60.410156-194.519531l-33.234375 22.265624c34.234375 51.089844 52.78125 110.738282 53.644531 172.519532-.863281 61.777344-19.410156 121.425781-53.644531 172.515625l33.234375 22.265625c38.601562-57.613282 59.492187-124.878906 60.410156-194.519532zm-133.789062 109.246094c16.292968-34.878906 24.523437-72.878906 23.796874-109.902344-.953124-48.707031-16.503906-96.015624-44.960937-136.800781l-32.804687 22.890625c23.910156 34.269532 36.972656 73.929688 37.773437 114.695313.445313 22.847656-3.214844 46.207031-10.6875 68.683593l-215.28125-165.519531-10.242187 23.429688c-.605469 1.382812-14.804688 34.386719-14.804688 80.015625 0 47.339844 27.066406 89.644531 28.21875 91.421875l33.566406-21.757813c-.21875-.335937-21.785156-34.589844-21.785156-69.664062 0-14.75 1.824219-27.914063 4.011719-38.40625l212.648437 163.496094zm0 0" fill="url(#a)"/></svg>